<svg xmlns="http://www.w3.org/2000/svg" viewBox="0 0 128 128" aria-hidden="true">
  <defs>
    <linearGradient id="bg" x1="0%" x2="100%" y1="0%" y2="100%">
      <stop offset="0%" stop-color="#FFF8EA"/>
      <stop offset="100%" stop-color="#F4DFC2"/>
    </linearGradient>
  </defs>
  <rect width="128" height="128" rx="30" fill="url(#bg)"/>
  <rect x="16" y="16" width="96" height="96" rx="24" fill="#0F172A"/>
  <circle cx="34" cy="34" r="6" fill="#F6C8A9"/>
  <circle cx="94" cy="34" r="6" fill="#F6C8A9"/>
  <circle cx="34" cy="94" r="6" fill="#F6C8A9"/>
  <circle cx="94" cy="94" r="6" fill="#F6C8A9"/>
  <path fill="#FFF8EA" d="M39.45 69.62c-4.56-2.36-7.45-6.73-7.45-12.13 0-9.1 7.34-15.49 17.62-15.49 10.36 0 17.77 6.39 17.77 15.49 0 5.4-2.88 9.77-7.45 12.13 5.54 2.66 8.94 7.54 8.94 13.91 0 10.06-7.96 16.47-19.26 16.47-11.23 0-19.11-6.41-19.11-16.47 0-6.37 3.39-11.25 8.94-13.91Zm10.17-3.17c4.56 0 7.52-3.18 7.52-7.82 0-4.58-2.96-7.75-7.52-7.75-4.48 0-7.38 3.17-7.38 7.75 0 4.64 2.9 7.82 7.38 7.82Zm0 24.67c5.18 0 8.56-3.47 8.56-8.42 0-5.03-3.38-8.49-8.56-8.49-5.03 0-8.41 3.46-8.41 8.49 0 4.95 3.38 8.42 8.41 8.42Z"/>
  <path fill="#F6C8A9" d="M74.18 49.66h23.82v7.58l-8.7 7.95c4.79.61 8.31 3.74 8.31 8.23 0 5.87-4.79 9.93-12.01 9.93-5.1 0-9.2-1.77-11.5-4.83l4.6-5.41c1.7 1.93 4.03 3.03 6.59 3.03 2.76 0 4.59-1.47 4.59-3.66 0-2.45-1.91-3.85-5.37-3.85h-2.99v-5.68l5.56-5.14h-12.9v-8.15Z"/>
</svg>
