<svg xmlns="http://www.w3.org/2000/svg" viewBox="0 0 512 512" width="512" height="512">
  <defs>
    <linearGradient id="grad" x1="0%" y1="0%" x2="100%" y2="100%">
      <stop offset="0%" stop-color="#1e3a8a" />
      <stop offset="100%" stop-color="#3b82f6" />
    </linearGradient>
  </defs>
  <rect width="512" height="512" rx="140" fill="url(#grad)" />
  <g transform="translate(128, 128) scale(10.6)" stroke="white" stroke-width="1.8" stroke-linecap="round" stroke-linejoin="round" fill="none">
    <!-- Globe & News document -->
    <path d="M4 22V4a2 2 0 0 1 2-2h12a2 2 0 0 1 2 2v18z" />
    <line x1="8" y1="6" x2="16" y2="6" stroke-width="1.5" />
    <line x1="8" y1="10" x2="16" y2="10" stroke-width="1.5" />
    <line x1="8" y1="14" x2="14" y2="14" stroke-width="1.5" />
    <!-- Global globe bottom right badge -->
    <circle cx="16" cy="16" r="5" fill="#1e3a8a" />
    <circle cx="16" cy="16" r="5" />
    <path d="M11 16h10" />
    <path d="M16 11a5 5 0 0 1 0 10" />
  </g>
</svg>
