<svg xmlns="http://www.w3.org/2000/svg" viewBox="0 0 512 512" width="512" height="512">
  <defs>
    <linearGradient id="grad" x1="0%" y1="0%" x2="100%" y2="100%">
      <stop offset="0%" stop-color="#4f46e5" />
      <stop offset="100%" stop-color="#3b82f6" />
    </linearGradient>
  </defs>
  <rect width="512" height="512" rx="140" fill="url(#grad)" />
  <g transform="translate(128, 128) scale(10.6)" stroke="white" stroke-width="1.8" stroke-linecap="round" stroke-linejoin="round" fill="none">
    <!-- Document + Summarizing stars -->
    <path d="M14 2H6a2 2 0 0 0-2 2v16a2 2 0 0 0 2 2h12a2 2 0 0 0 2-2V8z" />
    <polyline points="14 2 14 8 20 8" />
    <!-- bullet lines -->
    <line x1="8" y1="13" x2="12" y2="13" stroke-width="1.5" />
    <line x1="8" y1="17" x2="14" y2="17" stroke-width="1.5" />
    <!-- Sparkle star -->
    <path d="M18 13.5l1.5-1.5-1.5-1.5-1.5 1.5z" fill="white" stroke="none" />
    <path d="M16 17.5l1-1-1-1-1 1z" fill="white" stroke="none" />
  </g>
</svg>
