<svg xmlns="http://www.w3.org/2000/svg" viewBox="0 0 512 512" width="512" height="512">
  <defs>
    <linearGradient id="grad" x1="0%" y1="0%" x2="100%" y2="100%">
      <stop offset="0%" stop-color="#0088cc" />
      <stop offset="100%" stop-color="#1e3a8a" />
    </linearGradient>
  </defs>
  <rect width="512" height="512" rx="140" fill="url(#grad)" />
  <g transform="translate(128, 128) scale(10.6)" stroke="white" stroke-width="1.8" stroke-linecap="round" stroke-linejoin="round" fill="none">
    <!-- Paper plane outline -->
    <path d="M21 3L2 11.5l7.5 3 2.5 5.5 3.5-3.5L19 19z" />
    <!-- Gemini sparkle overlay -->
    <path d="M12 7c.2-.5.5-.8 1-1-.5-.2-.8-.5-1-1-.2.5-.5.8-1 1 .5.2.8.5 1 1z" fill="white" stroke="none" />
    <path d="M16 11.5c.3-.8.8-1.3 1.6-1.6-.8-.3-1.3-.8-1.6-1.6-.3.8-.8 1.3-1.6 1.6.8.3 1.3.8 1.6 1.6z" fill="white" stroke="none" />
  </g>
</svg>
